<svg width="24" height="24" viewBox="0 0 24 24" fill="none" xmlns="http://www.w3.org/2000/svg">
<path d="M13.9771 3C14.0618 2.99985 14.1457 3.01639 14.224 3.04867C14.3022 3.08095 14.3734 3.12834 14.4333 3.18814L20.8119 9.56669C20.9327 9.68752 21.0005 9.85137 21.0005 10.0222C21.0005 10.1931 20.9327 10.3569 20.8119 10.4777C20.1933 11.0963 19.4305 11.2354 18.8751 11.2354C18.647 11.2354 18.4434 11.2122 18.2823 11.1852L14.2439 15.2236C14.3502 15.652 14.4192 16.0887 14.4501 16.529C14.5093 17.4336 14.4088 18.7028 13.5223 19.5894C13.4014 19.7102 13.2376 19.778 13.0668 19.778C12.8959 19.778 12.7321 19.7102 12.6112 19.5894L8.96579 15.9452L4.86547 20.0456C4.6142 20.2968 3.29467 21.2079 3.0434 20.9566C2.79212 20.7053 3.70316 19.3845 3.95444 19.1345L8.05475 15.0342L4.4106 11.3888C4.28981 11.2679 4.22196 11.1041 4.22196 10.9332C4.22196 10.7624 4.28981 10.5986 4.4106 10.4777C5.29715 9.59118 6.56642 9.48938 7.47102 9.54994C7.91128 9.58079 8.34803 9.64977 8.77637 9.75612L12.8148 5.71894C12.7811 5.52271 12.7639 5.324 12.7633 5.1249C12.7633 4.5708 12.9025 3.80795 13.5223 3.18814C13.643 3.06769 13.8066 3.00004 13.9771 3Z" fill="#686868"/>
</svg>
