<svg width="25" height="24" viewBox="0 0 25 24" fill="none" xmlns="http://www.w3.org/2000/svg">
<path d="M12.5015 22C13.8066 22 14.8745 21.0769 14.8745 19.9487H10.1284C10.1284 20.4928 10.3784 21.0145 10.8235 21.3992C11.2685 21.7839 11.8721 22 12.5015 22ZM19.6205 15.8462V10.7179C19.6205 7.56923 17.6747 4.93333 14.2812 4.2359V3.53846C14.2812 2.68718 13.4863 2 12.5015 2C11.5167 2 10.7217 2.68718 10.7217 3.53846V4.2359C7.3164 4.93333 5.38238 7.55897 5.38238 10.7179V15.8462L3.85177 17.1692C3.10427 17.8154 3.62634 18.9231 4.68233 18.9231H20.3087C21.3647 18.9231 21.8987 17.8154 21.1512 17.1692L19.6205 15.8462Z" fill="#B2B2B2"/>
<circle cx="17.5" cy="7" r="4.5" fill="#FF5151" stroke="white"/>
</svg>
