<svg width="107" height="27" viewBox="0 0 107 27" fill="none" xmlns="http://www.w3.org/2000/svg">
<path d="M36.072 0.872L29.052 26H23.112L18.396 8.108L13.464 26L7.56 26.036L0.792 0.872H6.192L10.62 20.384L15.732 0.872H21.348L26.172 20.276L30.636 0.872H36.072ZM57.9029 15.596C57.9029 16.316 57.8549 16.964 57.7589 17.54H43.1789C43.2989 18.98 43.8029 20.108 44.6909 20.924C45.5789 21.74 46.6709 22.148 47.9669 22.148C49.8389 22.148 51.1709 21.344 51.9629 19.736H57.3989C56.8229 21.656 55.7189 23.24 54.0869 24.488C52.4549 25.712 50.4509 26.324 48.0749 26.324C46.1549 26.324 44.4269 25.904 42.8909 25.064C41.3789 24.2 40.1909 22.988 39.3269 21.428C38.4869 19.868 38.0669 18.068 38.0669 16.028C38.0669 13.964 38.4869 12.152 39.3269 10.592C40.1669 9.032 41.3429 7.832 42.8549 6.992C44.3669 6.152 46.1069 5.732 48.0749 5.732C49.9709 5.732 51.6629 6.14 53.1509 6.956C54.6629 7.772 55.8269 8.936 56.6429 10.448C57.4829 11.936 57.9029 13.652 57.9029 15.596ZM52.6829 14.156C52.6589 12.86 52.1909 11.828 51.2789 11.06C50.3669 10.268 49.2509 9.872 47.9309 9.872C46.6829 9.872 45.6269 10.256 44.7629 11.024C43.9229 11.768 43.4069 12.812 43.2149 14.156H52.6829ZM82.4257 0.872V26H77.3857V15.308H66.6217V26H61.5817V0.872H66.6217V11.204H77.3857V0.872H82.4257ZM100.346 26L94.8023 16.208H92.4263V26H87.3863V0.872H96.8183C98.7623 0.872 100.418 1.22 101.786 1.916C103.154 2.588 104.174 3.512 104.846 4.688C105.542 5.84 105.89 7.136 105.89 8.576C105.89 10.232 105.41 11.732 104.45 13.076C103.49 14.396 102.062 15.308 100.166 15.812L106.178 26H100.346ZM92.4263 12.428H96.6383C98.0063 12.428 99.0263 12.104 99.6983 11.456C100.37 10.784 100.706 9.86 100.706 8.684C100.706 7.532 100.37 6.644 99.6983 6.02C99.0263 5.372 98.0063 5.048 96.6383 5.048H92.4263V12.428Z" fill="black"/>
</svg>
