<svg width="110" height="19" viewBox="0 0 110 19" fill="none" xmlns="http://www.w3.org/2000/svg">
<path d="M5.52 18V4.68H0.144V1.08H15.312V4.68H9.936V18H5.52ZM14.7949 18V6.192H18.9469V8.184C19.4909 6.824 20.6669 6.08 22.4749 5.952L23.6509 5.856L23.8909 9.456L21.5629 9.672C20.7149 9.752 20.0989 9.992 19.7149 10.392C19.3309 10.776 19.1389 11.352 19.1389 12.12V18H14.7949ZM29.1879 18.264C28.2759 18.264 27.4679 18.096 26.7639 17.76C26.0759 17.424 25.5319 16.968 25.1319 16.392C24.7479 15.8 24.5559 15.128 24.5559 14.376C24.5559 13.528 24.7799 12.856 25.2279 12.36C25.6759 11.848 26.3959 11.488 27.3879 11.28C28.3799 11.056 29.6999 10.944 31.3479 10.944H32.2599V10.608C32.2599 10.032 32.1079 9.624 31.8039 9.384C31.5159 9.144 31.0119 9.024 30.2919 9.024C29.6839 9.024 29.0119 9.12 28.2759 9.312C27.5399 9.504 26.8199 9.8 26.1159 10.2L25.0359 7.392C25.4359 7.104 25.9479 6.848 26.5719 6.624C27.1959 6.4 27.8519 6.232 28.5399 6.12C29.2279 5.992 29.8759 5.928 30.4839 5.928C32.4519 5.928 33.9079 6.352 34.8519 7.2C35.8119 8.048 36.2919 9.384 36.2919 11.208V18H32.3079V16.32C32.0999 16.928 31.7239 17.408 31.1799 17.76C30.6359 18.096 29.9719 18.264 29.1879 18.264ZM30.1479 15.48C30.7399 15.48 31.2359 15.288 31.6359 14.904C32.0519 14.52 32.2599 14.016 32.2599 13.392V12.96H31.3479C30.4039 12.96 29.7079 13.064 29.2599 13.272C28.8279 13.464 28.6119 13.776 28.6119 14.208C28.6119 14.576 28.7399 14.88 28.9959 15.12C29.2679 15.36 29.6519 15.48 30.1479 15.48ZM42.0874 18L36.9034 6.192H41.3914L43.9594 12.888L46.6714 6.192H50.8714L45.5914 18H42.0874ZM57.7425 18.264C56.3025 18.264 55.0545 18.016 53.9985 17.52C52.9585 17.008 52.1585 16.288 51.5985 15.36C51.0385 14.432 50.7585 13.336 50.7585 12.072C50.7585 10.872 51.0225 9.808 51.5505 8.88C52.0945 7.952 52.8305 7.232 53.7585 6.72C54.7025 6.192 55.7745 5.928 56.9745 5.928C58.1585 5.928 59.1825 6.176 60.0465 6.672C60.9265 7.168 61.5985 7.88 62.0625 8.808C62.5425 9.72 62.7825 10.792 62.7825 12.024V12.96H54.8385C54.9825 13.728 55.3025 14.28 55.7985 14.616C56.2945 14.952 56.9825 15.12 57.8625 15.12C58.4705 15.12 59.1025 15.032 59.7585 14.856C60.4305 14.664 61.0225 14.392 61.5345 14.04L62.5905 16.848C61.9825 17.28 61.2385 17.624 60.3585 17.88C59.4785 18.136 58.6065 18.264 57.7425 18.264ZM57.1665 8.688C56.5265 8.688 55.9985 8.88 55.5825 9.264C55.1825 9.648 54.9265 10.208 54.8145 10.944H59.2785C59.2305 10.192 59.0225 9.632 58.6545 9.264C58.3025 8.88 57.8065 8.688 57.1665 8.688ZM69.279 18.264C67.647 18.264 66.463 17.856 65.727 17.04C64.991 16.208 64.623 14.96 64.623 13.296V1.08H68.895V13.152C68.895 14.272 69.407 14.832 70.431 14.832C70.591 14.832 70.751 14.824 70.911 14.808C71.087 14.792 71.255 14.768 71.415 14.736L71.367 18C70.727 18.176 70.031 18.264 69.279 18.264Z" fill="#3075C6"/>
<path d="M72.7508 18V13.632H77.1908V18H72.7508ZM79.3858 4.152V0.287999H83.8738V4.152H79.3858ZM79.5058 18V6.192H83.7778V18H79.5058ZM86.2558 18V6.192H90.4078V7.8C90.8238 7.192 91.3598 6.728 92.0158 6.408C92.6718 6.088 93.4078 5.928 94.2238 5.928C95.6318 5.928 96.6718 6.344 97.3438 7.176C98.0318 8.008 98.3758 9.288 98.3758 11.016V18H94.1038V11.184C94.1038 10.464 93.9758 9.952 93.7198 9.648C93.4798 9.344 93.1198 9.192 92.6398 9.192C91.9998 9.192 91.4878 9.4 91.1038 9.816C90.7198 10.216 90.5278 10.76 90.5278 11.448V18H86.2558ZM107.003 18.264C105.211 18.264 103.883 17.848 103.019 17.016C102.155 16.184 101.723 14.928 101.723 13.248V9.336H99.5145V6.192H101.723V2.76H105.995V6.192H109.355V9.336H105.995V13.104C105.995 14.256 106.579 14.832 107.747 14.832C107.939 14.832 108.147 14.816 108.371 14.784C108.611 14.736 108.875 14.672 109.163 14.592L109.739 17.664C109.371 17.856 108.939 18 108.443 18.096C107.947 18.208 107.467 18.264 107.003 18.264Z" fill="#313131"/>
</svg>
