<svg xmlns="http://www.w3.org/2000/svg" width="110" height="33" fill="none" xmlns:v="https://vecta.io/nano"><path d="M5.52 24V10.68H.144v-3.6h15.168v3.6H9.936V24H5.52zm9.275 0V12.192h4.152v1.992c.544-1.36 1.72-2.104 3.528-2.232l1.176-.096.24 3.6-2.328.216c-.848.08-1.464.32-1.848.72-.384.384-.576.96-.576 1.728V24h-4.344zm14.393.264c-.912 0-1.72-.168-2.424-.504-.688-.336-1.232-.792-1.632-1.368-.384-.592-.576-1.264-.576-2.016 0-.848.224-1.52.672-2.016.448-.512 1.168-.872 2.16-1.08.992-.224 2.312-.336 3.96-.336h.912v-.336c0-.576-.152-.984-.456-1.224-.288-.24-.792-.36-1.512-.36-.608 0-1.28.096-2.016.288s-1.456.488-2.16.888l-1.08-2.808c.4-.288.912-.544 1.536-.768s1.28-.392 1.968-.504c.688-.128 1.336-.192 1.944-.192 1.968 0 3.424.424 4.368 1.272.96.848 1.44 2.184 1.44 4.008V24h-3.984v-1.68a2.72 2.72 0 0 1-1.128 1.44c-.544.336-1.208.504-1.992.504zm.96-2.784c.592 0 1.088-.192 1.488-.576.416-.384.624-.888.624-1.512v-.432h-.912c-.944 0-1.64.104-2.088.312-.432.192-.648.504-.648.936 0 .368.128.672.384.912.272.24.656.36 1.152.36zM42.087 24l-5.184-11.808h4.488l2.568 6.696 2.712-6.696h4.2L45.591 24h-3.504zm15.655.264c-1.44 0-2.688-.248-3.744-.744-1.04-.512-1.84-1.232-2.4-2.16s-.84-2.024-.84-3.288c0-1.2.264-2.264.792-3.192.544-.928 1.28-1.648 2.208-2.16.944-.528 2.016-.792 3.216-.792 1.184 0 2.208.248 3.072.744.88.496 1.552 1.208 2.016 2.136.48.912.72 1.984.72 3.216v.936h-7.944c.144.768.464 1.32.96 1.656s1.184.504 2.064.504a7.31 7.31 0 0 0 1.896-.264c.672-.192 1.264-.464 1.776-.816l1.056 2.808c-.608.432-1.352.776-2.232 1.032a9.33 9.33 0 0 1-2.616.384zm-.576-9.576c-.64 0-1.168.192-1.584.576-.4.384-.656.944-.768 1.68h4.464c-.048-.752-.256-1.312-.624-1.68-.352-.384-.848-.576-1.488-.576zm12.112 9.576c-1.632 0-2.816-.408-3.552-1.224-.736-.832-1.104-2.08-1.104-3.744V7.08h4.272v12.072c0 1.12.512 1.68 1.536 1.68a4.82 4.82 0 0 0 .48-.024c.176-.016.344-.04.504-.072L71.367 24c-.64.176-1.336.264-2.088.264z" fill="#3075c6"/><path d="M72.751 24v-4.368h4.44V24h-4.44zm6.635-13.848V6.288h4.488v3.864h-4.488zM79.506 24V12.192h4.272V24h-4.272zm6.75 0V12.192h4.152V13.8c.416-.608.952-1.072 1.608-1.392s1.392-.48 2.208-.48c1.408 0 2.448.416 3.12 1.248.688.832 1.032 2.112 1.032 3.84V24h-4.272v-6.816c0-.72-.128-1.232-.384-1.536-.24-.304-.6-.456-1.08-.456-.64 0-1.152.208-1.536.624-.384.4-.576.944-.576 1.632V24h-4.272zm20.747.264c-1.792 0-3.12-.416-3.984-1.248s-1.296-2.088-1.296-3.768v-3.912h-2.209v-3.144h2.209V8.76h4.272v3.432h3.36v3.144h-3.36v3.768c0 1.152.584 1.728 1.752 1.728a4.43 4.43 0 0 0 .624-.048l.792-.192.576 3.072c-.368.192-.8.336-1.296.432a6.53 6.53 0 0 1-1.44.168z" fill="#313131"/></svg>