<svg width="24" height="24" viewBox="0 0 24 24" fill="none" xmlns="http://www.w3.org/2000/svg">
<path d="M12 24C18.6353 24 24 18.6353 24 12C24 5.36471 18.6353 0 12 0C5.36471 0 0 5.36471 0 12C0 18.6353 5.36471 24 12 24Z" fill="#0C0C0C"/>
<path d="M14.3294 12.0002L10.3765 14.3296V9.74133L14.3294 12.0002ZM18 14.1178V9.88251C18 9.88251 18 7.83545 15.9529 7.83545H8.04706C8.04706 7.83545 6 7.83545 6 9.88251V14.1178C6 14.1178 6 16.1649 8.04706 16.1649H15.8824C15.9529 16.2354 18 16.2354 18 14.1178Z" fill="#F6F8FB"/>
</svg>
