<svg width="229" height="56" viewBox="0 0 229 56" fill="none" xmlns="http://www.w3.org/2000/svg">
<path d="M46.5456 22C48.2377 22 49.6434 22.429 50.7628 23.287C51.8822 24.145 52.6371 25.3085 53.0276 26.7775H50.6651C50.3397 25.9455 49.8191 25.289 49.1032 24.808C48.4004 24.314 47.5348 24.067 46.5065 24.067C45.6865 24.067 44.9511 24.2685 44.3003 24.6715C43.6625 25.0745 43.1549 25.653 42.7774 26.407C42.413 27.148 42.2307 28.019 42.2307 29.02C42.2307 30.008 42.413 30.879 42.7774 31.633C43.1549 32.374 43.6625 32.946 44.3003 33.349C44.9511 33.752 45.6865 33.9535 46.5065 33.9535C47.5348 33.9535 48.4004 33.713 49.1032 33.232C49.8191 32.738 50.3397 32.0815 50.6651 31.2625H53.0276C52.6371 32.7315 51.8822 33.895 50.7628 34.753C49.6434 35.598 48.2377 36.0205 46.5456 36.0205C45.244 36.0205 44.092 35.728 43.0898 35.143C42.0876 34.545 41.3131 33.7195 40.7664 32.6665C40.2197 31.6005 39.9464 30.385 39.9464 29.02C39.9464 27.655 40.2197 26.446 40.7664 25.393C41.3131 24.327 42.0876 23.495 43.0898 22.897C44.092 22.299 45.244 22 46.5456 22Z" fill="#0C0C0C"/>
<path d="M60.1684 25.0225C61.2096 25.0225 62.1468 25.2435 62.9798 25.6855C63.8129 26.1275 64.4637 26.7645 64.9322 27.5965C65.4008 28.4285 65.6351 29.4035 65.6351 30.5215C65.6351 31.6525 65.4008 32.634 64.9322 33.466C64.4637 34.298 63.8129 34.935 62.9798 35.377C62.1468 35.819 61.2096 36.04 60.1684 36.04C59.1271 36.04 58.1899 35.819 57.3569 35.377C56.5369 34.935 55.8861 34.298 55.4045 33.466C54.9359 32.621 54.7016 31.6395 54.7016 30.5215C54.7016 29.4035 54.9359 28.4285 55.4045 27.5965C55.8861 26.7645 56.5369 26.1275 57.3569 25.6855C58.1899 25.2435 59.1271 25.0225 60.1684 25.0225ZM60.1684 26.953C59.5957 26.953 59.0685 27.083 58.5869 27.343C58.1053 27.603 57.7148 28.006 57.4155 28.552C57.1291 29.085 56.9859 29.7415 56.9859 30.5215C56.9859 31.3145 57.1291 31.9775 57.4155 32.5105C57.7148 33.0435 58.1053 33.44 58.5869 33.7C59.0685 33.96 59.5957 34.09 60.1684 34.09C60.7411 34.09 61.2682 33.96 61.7498 33.7C62.2314 33.44 62.6154 33.0435 62.9017 32.5105C63.2011 31.9775 63.3508 31.3145 63.3508 30.5215C63.3508 29.7415 63.2011 29.085 62.9017 28.552C62.6154 28.006 62.2314 27.603 61.7498 27.343C61.2682 27.083 60.7411 26.953 60.1684 26.953Z" fill="#0C0C0C"/>
<path d="M81.2271 24.9835C82.5027 24.9835 83.5179 25.3865 84.2729 26.1925C85.0408 26.9985 85.4248 28.149 85.4248 29.644V35.9035H83.199V29.878C83.199 28.942 82.9647 28.2205 82.4962 27.7135C82.0276 27.1935 81.3833 26.9335 80.5633 26.9335C79.6912 26.9335 78.9948 27.213 78.4742 27.772C77.9666 28.318 77.7128 29.124 77.7128 30.19V35.9035H75.487V29.878C75.487 28.942 75.2527 28.2205 74.7841 27.7135C74.3156 27.1935 73.6713 26.9335 72.8513 26.9335C71.9792 26.9335 71.2828 27.213 70.7622 27.772C70.2545 28.318 70.0007 29.124 70.0007 30.19V35.9035H67.775V25.159H70.0007V27.4015C70.2741 26.6215 70.7296 26.0235 71.3674 25.6075C72.0052 25.1915 72.7536 24.9835 73.6127 24.9835C74.5108 24.9835 75.2853 25.2045 75.9361 25.6465C76.5999 26.0885 77.0815 26.7255 77.3808 27.5575C77.6932 26.7515 78.1944 26.121 78.8842 25.666C79.5741 25.211 80.355 24.9835 81.2271 24.9835Z" fill="#0C0C0C"/>
<path d="M101.476 24.9835C102.751 24.9835 103.767 25.3865 104.521 26.1925C105.289 26.9985 105.673 28.149 105.673 29.644V35.9035H103.448V29.878C103.448 28.942 103.213 28.2205 102.745 27.7135C102.276 27.1935 101.632 26.9335 100.812 26.9335C99.9398 26.9335 99.2435 27.213 98.7228 27.772C98.2152 28.318 97.9614 29.124 97.9614 30.19V35.9035H95.7357V29.878C95.7357 28.942 95.5014 28.2205 95.0328 27.7135C94.5642 27.1935 93.9199 26.9335 93.0999 26.9335C92.2278 26.9335 91.5315 27.213 91.0108 27.772C90.5032 28.318 90.2494 29.124 90.2494 30.19V35.9035H88.0236V25.159H90.2494V27.4015C90.5227 26.6215 90.9783 26.0235 91.6161 25.6075C92.2538 25.1915 93.0023 24.9835 93.8613 24.9835C94.7594 24.9835 95.5339 25.2045 96.1847 25.6465C96.8485 26.0885 97.3301 26.7255 97.6295 27.5575C97.9419 26.7515 98.443 26.121 99.1328 25.666C99.8227 25.211 100.604 24.9835 101.476 24.9835Z" fill="#0C0C0C"/>
<path d="M118.269 30.0145C118.269 30.3785 118.243 30.697 118.191 30.97H109.912C109.951 32.075 110.257 32.894 110.83 33.427C111.403 33.96 112.112 34.2265 112.958 34.2265C113.7 34.2265 114.325 34.038 114.832 33.661C115.353 33.284 115.672 32.7835 115.789 32.1595H118.171C118.028 32.9135 117.728 33.583 117.273 34.168C116.817 34.753 116.225 35.2145 115.496 35.5525C114.767 35.8775 113.954 36.04 113.056 36.04C112.014 36.04 111.09 35.819 110.283 35.377C109.489 34.935 108.864 34.298 108.409 33.466C107.953 32.634 107.726 31.6525 107.726 30.5215C107.726 29.4035 107.953 28.4285 108.409 27.5965C108.864 26.7645 109.489 26.1275 110.283 25.6855C111.09 25.2435 112.014 25.0225 113.056 25.0225C114.11 25.0225 115.028 25.2435 115.809 25.6855C116.603 26.1145 117.208 26.7125 117.624 27.4795C118.054 28.2335 118.269 29.0785 118.269 30.0145ZM116.023 29.956C116.049 29.254 115.926 28.669 115.652 28.201C115.392 27.72 115.028 27.369 114.559 27.148C114.103 26.914 113.602 26.797 113.056 26.797C112.184 26.797 111.455 27.0635 110.869 27.5965C110.283 28.1295 109.964 28.916 109.912 29.956H116.023Z" fill="#0C0C0C"/>
<path d="M122.643 27.265C123.008 26.563 123.528 26.0105 124.205 25.6075C124.882 25.1915 125.663 24.9835 126.548 24.9835V27.4015H125.884C124.908 27.4015 124.121 27.642 123.522 28.123C122.936 28.591 122.643 29.371 122.643 30.463V35.9035H120.418V25.159H122.643V27.265Z" fill="#0C0C0C"/>
<path d="M132.999 25.0225C134.392 25.0225 135.544 25.393 136.455 26.134C137.366 26.862 137.932 27.8565 138.154 29.1175H135.791C135.661 28.4415 135.342 27.915 134.835 27.538C134.34 27.148 133.715 26.953 132.96 26.953C132.101 26.953 131.385 27.2585 130.813 27.8695C130.24 28.4675 129.953 29.3515 129.953 30.5215C129.953 31.6915 130.24 32.582 130.813 33.193C131.385 33.804 132.101 34.1095 132.96 34.1095C133.715 34.1095 134.34 33.9145 134.835 33.5245C135.342 33.1345 135.661 32.6015 135.791 31.9255H138.154C137.932 33.1865 137.366 34.1875 136.455 34.9285C135.544 35.6695 134.392 36.04 132.999 36.04C131.958 36.04 131.034 35.819 130.227 35.377C129.433 34.935 128.808 34.298 128.353 33.466C127.897 32.634 127.669 31.6525 127.669 30.5215C127.669 29.4035 127.897 28.4285 128.353 27.5965C128.808 26.7645 129.433 26.1275 130.227 25.6855C131.034 25.2435 131.958 25.0225 132.999 25.0225Z" fill="#0C0C0C"/>
<path d="M150.3 30.0145C150.3 30.3785 150.274 30.697 150.222 30.97H141.944C141.983 32.075 142.289 32.894 142.862 33.427C143.434 33.96 144.144 34.2265 144.99 34.2265C145.732 34.2265 146.356 34.038 146.864 33.661C147.385 33.284 147.704 32.7835 147.821 32.1595H150.203C150.06 32.9135 149.76 33.583 149.305 34.168C148.849 34.753 148.257 35.2145 147.528 35.5525C146.799 35.8775 145.986 36.04 145.087 36.04C144.046 36.04 143.122 35.819 142.315 35.377C141.521 34.935 140.896 34.298 140.441 33.466C139.985 32.634 139.757 31.6525 139.757 30.5215C139.757 29.4035 139.985 28.4285 140.441 27.5965C140.896 26.7645 141.521 26.1275 142.315 25.6855C143.122 25.2435 144.046 25.0225 145.087 25.0225C146.142 25.0225 147.059 25.2435 147.84 25.6855C148.634 26.1145 149.24 26.7125 149.656 27.4795C150.086 28.2335 150.3 29.0785 150.3 30.0145ZM148.055 29.956C148.081 29.254 147.957 28.669 147.684 28.201C147.424 27.72 147.059 27.369 146.591 27.148C146.135 26.914 145.634 26.797 145.087 26.797C144.215 26.797 143.486 27.0635 142.901 27.5965C142.315 28.1295 141.996 28.916 141.944 29.956H148.055Z" fill="#0C0C0C"/>
<path d="M160.532 28.8055C161.365 29.0005 162.023 29.4035 162.504 30.0145C162.999 30.6255 163.246 31.334 163.246 32.14C163.246 33.323 162.849 34.246 162.055 34.909C161.274 35.572 160.148 35.9035 158.678 35.9035H152.254V22.117H158.521C159.927 22.117 161.014 22.4225 161.782 23.0335C162.55 23.6445 162.934 24.5155 162.934 25.6465C162.934 26.4785 162.713 27.174 162.27 27.733C161.827 28.279 161.248 28.6365 160.532 28.8055ZM155.593 27.7525H157.779C158.938 27.7525 159.517 27.2585 159.517 26.2705C159.517 25.2825 158.925 24.7885 157.74 24.7885H155.593V27.7525ZM157.975 33.193C159.211 33.193 159.829 32.686 159.829 31.672C159.829 31.178 159.667 30.7945 159.341 30.5215C159.016 30.2355 158.554 30.0925 157.955 30.0925H155.593V33.193H157.975Z" fill="#0C0C0C"/>
<path d="M170.105 24.886C171.186 24.886 172.149 25.1135 172.995 25.5685C173.854 26.0105 174.524 26.654 175.006 27.499C175.501 28.344 175.748 29.332 175.748 30.463C175.748 31.594 175.501 32.582 175.006 33.427C174.524 34.272 173.854 34.922 172.995 35.377C172.149 35.819 171.186 36.04 170.105 36.04C169.025 36.04 168.055 35.819 167.196 35.377C166.337 34.922 165.66 34.272 165.166 33.427C164.684 32.582 164.443 31.594 164.443 30.463C164.443 29.332 164.684 28.344 165.166 27.499C165.66 26.654 166.337 26.0105 167.196 25.5685C168.055 25.1135 169.025 24.886 170.105 24.886ZM170.105 27.772C169.468 27.772 168.927 28.006 168.485 28.474C168.055 28.929 167.841 29.592 167.841 30.463C167.841 31.334 168.055 31.997 168.485 32.452C168.927 32.907 169.468 33.1345 170.105 33.1345C170.743 33.1345 171.277 32.907 171.706 32.452C172.136 31.997 172.351 31.334 172.351 30.463C172.351 29.592 172.136 28.929 171.706 28.474C171.277 28.006 170.743 27.772 170.105 27.772Z" fill="#0C0C0C"/>
<path d="M182.575 24.886C183.655 24.886 184.618 25.1135 185.465 25.5685C186.324 26.0105 186.994 26.654 187.475 27.499C187.97 28.344 188.217 29.332 188.217 30.463C188.217 31.594 187.97 32.582 187.475 33.427C186.994 34.272 186.324 34.922 185.465 35.377C184.618 35.819 183.655 36.04 182.575 36.04C181.495 36.04 180.525 35.819 179.666 35.377C178.807 34.922 178.13 34.272 177.635 33.427C177.154 32.582 176.913 31.594 176.913 30.463C176.913 29.332 177.154 28.344 177.635 27.499C178.13 26.654 178.807 26.0105 179.666 25.5685C180.525 25.1135 181.495 24.886 182.575 24.886ZM182.575 27.772C181.937 27.772 181.397 28.006 180.954 28.474C180.525 28.929 180.31 29.592 180.31 30.463C180.31 31.334 180.525 31.997 180.954 32.452C181.397 32.907 181.937 33.1345 182.575 33.1345C183.213 33.1345 183.746 32.907 184.176 32.452C184.605 31.997 184.82 31.334 184.82 30.463C184.82 29.592 184.605 28.929 184.176 28.474C183.746 28.006 183.213 27.772 182.575 27.772Z" fill="#0C0C0C"/>
<path d="M193.912 24.886C195.292 24.886 196.392 25.2305 197.212 25.9195C198.045 26.6085 198.565 27.5185 198.774 28.6495H195.65C195.559 28.2075 195.35 27.863 195.025 27.616C194.713 27.356 194.316 27.226 193.834 27.226C193.456 27.226 193.17 27.3105 192.975 27.4795C192.78 27.6355 192.682 27.863 192.682 28.162C192.682 28.5 192.858 28.7535 193.209 28.9225C193.574 29.0915 194.14 29.2605 194.908 29.4295C195.741 29.6245 196.424 29.826 196.958 30.034C197.491 30.229 197.954 30.554 198.344 31.009C198.734 31.464 198.93 32.075 198.93 32.842C198.93 33.466 198.761 34.0185 198.422 34.4995C198.084 34.9805 197.596 35.3575 196.958 35.6305C196.32 35.9035 195.565 36.04 194.693 36.04C193.222 36.04 192.044 35.715 191.159 35.065C190.274 34.415 189.734 33.4855 189.539 32.2765H192.76C192.812 32.7445 193.007 33.102 193.346 33.349C193.697 33.596 194.146 33.7195 194.693 33.7195C195.07 33.7195 195.357 33.635 195.552 33.466C195.747 33.284 195.845 33.05 195.845 32.764C195.845 32.387 195.663 32.1205 195.298 31.9645C194.947 31.7955 194.368 31.62 193.561 31.438C192.754 31.269 192.09 31.087 191.569 30.892C191.049 30.697 190.599 30.385 190.222 29.956C189.845 29.514 189.656 28.916 189.656 28.162C189.656 27.187 190.027 26.4005 190.769 25.8025C191.511 25.1915 192.558 24.886 193.912 24.886Z" fill="#0C0C0C"/>
<path d="M206.948 33.037V35.9035H205.445C204.169 35.9035 203.173 35.5915 202.458 34.9675C201.755 34.3305 201.403 33.284 201.403 31.828V27.8305H199.939V25.0225H201.403V22.351H204.742V25.0225H206.929V27.8305H204.742V31.8865C204.742 32.3155 204.826 32.6145 204.996 32.7835C205.178 32.9525 205.477 33.037 205.894 33.037H206.948Z" fill="#0C0C0C"/>
<path d="M219.172 30.1705C219.172 30.4435 219.14 30.7425 219.075 31.0675H211.519C211.558 31.8865 211.766 32.478 212.144 32.842C212.521 33.193 213.003 33.3685 213.588 33.3685C214.083 33.3685 214.493 33.245 214.818 32.998C215.144 32.751 215.359 32.4325 215.463 32.0425H218.997C218.853 32.8095 218.541 33.4985 218.059 34.1095C217.578 34.7075 216.966 35.182 216.224 35.533C215.482 35.871 214.656 36.04 213.745 36.04C212.677 36.04 211.727 35.819 210.894 35.377C210.074 34.922 209.43 34.272 208.961 33.427C208.493 32.582 208.258 31.594 208.258 30.463C208.258 29.319 208.486 28.331 208.942 27.499C209.41 26.654 210.061 26.0105 210.894 25.5685C211.727 25.1135 212.677 24.886 213.745 24.886C214.825 24.886 215.775 25.107 216.595 25.549C217.415 25.991 218.046 26.615 218.489 27.421C218.944 28.214 219.172 29.1305 219.172 30.1705ZM215.795 29.6635C215.808 28.9485 215.612 28.4155 215.209 28.0645C214.818 27.7005 214.33 27.5185 213.745 27.5185C213.133 27.5185 212.625 27.7005 212.222 28.0645C211.818 28.4285 211.59 28.9615 211.538 29.6635H215.795Z" fill="#0C0C0C"/>
<path d="M224.251 27.07C224.668 26.407 225.201 25.8805 225.852 25.4905C226.516 25.1005 227.232 24.9055 228 24.9055V28.474H227.043C226.158 28.474 225.468 28.6625 224.974 29.0395C224.492 29.4165 224.251 30.0535 224.251 30.9505V35.9035H220.913V25.0225H224.251V27.07Z" fill="#0C0C0C"/>
<path d="M-1.52588e-05 33.5L16.0162 24.572L16.0198 16L-1.46244e-05 24.9237L-1.52588e-05 33.5Z" fill="#B5CBEF"/>
<path d="M34.042 29.5L17.5216 39.0263L17.5216 19.9737L34.042 29.5Z" fill="#1071FF"/>
<path d="M7.50926 39.3902L16.0198 44L16.0198 35.4972L7.50926 31L7.50926 39.3902Z" fill="#B5CBEF"/>
</svg>
