<svg width="16" height="16" viewBox="0 0 16 16" fill="none" xmlns="http://www.w3.org/2000/svg">
<path d="M12.55 2.16667C12.5 2.90833 12.375 3.63333 12.175 4.325L13.175 5.325C13.5167 4.325 13.7333 3.26667 13.8083 2.16667H12.55ZM4.33333 12.1833C3.625 12.3833 2.9 12.5083 2.16667 12.5583V13.8C3.26667 13.725 4.325 13.5083 5.33333 13.175L4.33333 12.1833ZM11.75 0.5H14.6667C15.125 0.5 15.5 0.875 15.5 1.33333C15.5 9.15833 9.15833 15.5 1.33333 15.5C0.875 15.5 0.5 15.125 0.5 14.6667V11.7583C0.5 11.3 0.875 10.925 1.33333 10.925C2.36667 10.925 3.375 10.7583 4.30833 10.45C4.39167 10.4167 4.48333 10.4083 4.56667 10.4083C4.78333 10.4083 4.99167 10.4917 5.15833 10.65L6.99167 12.4833C9.35 11.275 11.2833 9.35 12.4833 6.99167L10.65 5.15833C10.4167 4.925 10.35 4.6 10.4417 4.30833C10.75 3.375 10.9167 2.375 10.9167 1.33333C10.9167 0.875 11.2917 0.5 11.75 0.5Z" fill="#1071FF"/>
</svg>
