<svg width="228" height="28" viewBox="0 0 228 28" fill="none" xmlns="http://www.w3.org/2000/svg">
<path d="M46.5457 6C48.2378 6 49.6435 6.429 50.7629 7.287C51.8823 8.145 52.6372 9.3085 53.0277 10.7775H50.6653C50.3399 9.9455 49.8192 9.289 49.1033 8.808C48.4005 8.314 47.5349 8.067 46.5066 8.067C45.6866 8.067 44.9512 8.2685 44.3004 8.6715C43.6626 9.0745 43.155 9.653 42.7775 10.407C42.4131 11.148 42.2309 12.019 42.2309 13.02C42.2309 14.008 42.4131 14.879 42.7775 15.633C43.155 16.374 43.6626 16.946 44.3004 17.349C44.9512 17.752 45.6866 17.9535 46.5066 17.9535C47.5349 17.9535 48.4005 17.713 49.1033 17.232C49.8192 16.738 50.3399 16.0815 50.6653 15.2625H53.0277C52.6372 16.7315 51.8823 17.895 50.7629 18.753C49.6435 19.598 48.2378 20.0205 46.5457 20.0205C45.2441 20.0205 44.0922 19.728 43.0899 19.143C42.0877 18.545 41.3132 17.7195 40.7665 16.6665C40.2199 15.6005 39.9465 14.385 39.9465 13.02C39.9465 11.655 40.2199 10.446 40.7665 9.393C41.3132 8.327 42.0877 7.495 43.0899 6.897C44.0922 6.299 45.2441 6 46.5457 6Z" fill="#0C0C0C"/>
<path d="M60.1685 9.0225C61.2098 9.0225 62.1469 9.2435 62.98 9.6855C63.813 10.1275 64.4638 10.7645 64.9324 11.5965C65.4009 12.4285 65.6352 13.4035 65.6352 14.5215C65.6352 15.6525 65.4009 16.634 64.9324 17.466C64.4638 18.298 63.813 18.935 62.98 19.377C62.1469 19.819 61.2098 20.04 60.1685 20.04C59.1272 20.04 58.19 19.819 57.357 19.377C56.537 18.935 55.8862 18.298 55.4046 17.466C54.936 16.621 54.7017 15.6395 54.7017 14.5215C54.7017 13.4035 54.936 12.4285 55.4046 11.5965C55.8862 10.7645 56.537 10.1275 57.357 9.6855C58.19 9.2435 59.1272 9.0225 60.1685 9.0225ZM60.1685 10.953C59.5958 10.953 59.0686 11.083 58.587 11.343C58.1054 11.603 57.715 12.006 57.4156 12.552C57.1292 13.085 56.986 13.7415 56.986 14.5215C56.986 15.3145 57.1292 15.9775 57.4156 16.5105C57.715 17.0435 58.1054 17.44 58.587 17.7C59.0686 17.96 59.5958 18.09 60.1685 18.09C60.7412 18.09 61.2683 17.96 61.7499 17.7C62.2315 17.44 62.6155 17.0435 62.9019 16.5105C63.2012 15.9775 63.3509 15.3145 63.3509 14.5215C63.3509 13.7415 63.2012 13.085 62.9019 12.552C62.6155 12.006 62.2315 11.603 61.7499 11.343C61.2683 11.083 60.7412 10.953 60.1685 10.953Z" fill="#0C0C0C"/>
<path d="M81.2272 8.9835C82.5028 8.9835 83.518 9.3865 84.273 10.1925C85.0409 10.9985 85.4249 12.149 85.4249 13.644V19.9035H83.1992V13.878C83.1992 12.942 82.9649 12.2205 82.4963 11.7135C82.0277 11.1935 81.3834 10.9335 80.5634 10.9335C79.6913 10.9335 78.995 11.213 78.4743 11.772C77.9667 12.318 77.7129 13.124 77.7129 14.19V19.9035H75.4871V13.878C75.4871 12.942 75.2528 12.2205 74.7843 11.7135C74.3157 11.1935 73.6714 10.9335 72.8514 10.9335C71.9793 10.9335 71.2829 11.213 70.7623 11.772C70.2547 12.318 70.0009 13.124 70.0009 14.19V19.9035H67.7751V9.159H70.0009V11.4015C70.2742 10.6215 70.7298 10.0235 71.3675 9.6075C72.0053 9.1915 72.7538 8.9835 73.6128 8.9835C74.5109 8.9835 75.2854 9.2045 75.9362 9.6465C76.6 10.0885 77.0816 10.7255 77.381 11.5575C77.6934 10.7515 78.1945 10.121 78.8843 9.666C79.5742 9.211 80.3551 8.9835 81.2272 8.9835Z" fill="#0C0C0C"/>
<path d="M101.476 8.9835C102.751 8.9835 103.767 9.3865 104.522 10.1925C105.29 10.9985 105.674 12.149 105.674 13.644V19.9035H103.448V13.878C103.448 12.942 103.214 12.2205 102.745 11.7135C102.276 11.1935 101.632 10.9335 100.812 10.9335C99.94 10.9335 99.2436 11.213 98.723 11.772C98.2153 12.318 97.9615 13.124 97.9615 14.19V19.9035H95.7358V13.878C95.7358 12.942 95.5015 12.2205 95.0329 11.7135C94.5643 11.1935 93.92 10.9335 93.1 10.9335C92.2279 10.9335 91.5316 11.213 91.0109 11.772C90.5033 12.318 90.2495 13.124 90.2495 14.19V19.9035H88.0238V9.159H90.2495V11.4015C90.5228 10.6215 90.9784 10.0235 91.6162 9.6075C92.254 9.1915 93.0024 8.9835 93.8615 8.9835C94.7596 8.9835 95.534 9.2045 96.1848 9.6465C96.8486 10.0885 97.3302 10.7255 97.6296 11.5575C97.942 10.7515 98.4431 10.121 99.133 9.666C99.8228 9.211 100.604 8.9835 101.476 8.9835Z" fill="#0C0C0C"/>
<path d="M118.269 14.0145C118.269 14.3785 118.243 14.697 118.191 14.97H109.912C109.951 16.075 110.257 16.894 110.83 17.427C111.403 17.96 112.112 18.2265 112.958 18.2265C113.7 18.2265 114.325 18.038 114.832 17.661C115.353 17.284 115.672 16.7835 115.789 16.1595H118.171C118.028 16.9135 117.729 17.583 117.273 18.168C116.817 18.753 116.225 19.2145 115.496 19.5525C114.767 19.8775 113.954 20.04 113.056 20.04C112.015 20.04 111.09 19.819 110.283 19.377C109.489 18.935 108.865 18.298 108.409 17.466C107.953 16.634 107.726 15.6525 107.726 14.5215C107.726 13.4035 107.953 12.4285 108.409 11.5965C108.865 10.7645 109.489 10.1275 110.283 9.6855C111.09 9.2435 112.015 9.0225 113.056 9.0225C114.11 9.0225 115.028 9.2435 115.809 9.6855C116.603 10.1145 117.208 10.7125 117.624 11.4795C118.054 12.2335 118.269 13.0785 118.269 14.0145ZM116.023 13.956C116.049 13.254 115.926 12.669 115.652 12.201C115.392 11.72 115.028 11.369 114.559 11.148C114.104 10.914 113.602 10.797 113.056 10.797C112.184 10.797 111.455 11.0635 110.869 11.5965C110.283 12.1295 109.964 12.916 109.912 13.956H116.023Z" fill="#0C0C0C"/>
<path d="M122.644 11.265C123.008 10.563 123.529 10.0105 124.205 9.6075C124.882 9.1915 125.663 8.9835 126.548 8.9835V11.4015H125.885C124.908 11.4015 124.121 11.642 123.522 12.123C122.936 12.591 122.644 13.371 122.644 14.463V19.9035H120.418V9.159H122.644V11.265Z" fill="#0C0C0C"/>
<path d="M132.999 9.0225C134.392 9.0225 135.544 9.393 136.455 10.134C137.366 10.862 137.932 11.8565 138.154 13.1175H135.791C135.661 12.4415 135.342 11.915 134.835 11.538C134.34 11.148 133.715 10.953 132.96 10.953C132.101 10.953 131.385 11.2585 130.813 11.8695C130.24 12.4675 129.954 13.3515 129.954 14.5215C129.954 15.6915 130.24 16.582 130.813 17.193C131.385 17.804 132.101 18.1095 132.96 18.1095C133.715 18.1095 134.34 17.9145 134.835 17.5245C135.342 17.1345 135.661 16.6015 135.791 15.9255H138.154C137.932 17.1865 137.366 18.1875 136.455 18.9285C135.544 19.6695 134.392 20.04 132.999 20.04C131.958 20.04 131.034 19.819 130.227 19.377C129.433 18.935 128.808 18.298 128.353 17.466C127.897 16.634 127.669 15.6525 127.669 14.5215C127.669 13.4035 127.897 12.4285 128.353 11.5965C128.808 10.7645 129.433 10.1275 130.227 9.6855C131.034 9.2435 131.958 9.0225 132.999 9.0225Z" fill="#0C0C0C"/>
<path d="M150.3 14.0145C150.3 14.3785 150.274 14.697 150.222 14.97H141.944C141.983 16.075 142.289 16.894 142.862 17.427C143.435 17.96 144.144 18.2265 144.99 18.2265C145.732 18.2265 146.357 18.038 146.864 17.661C147.385 17.284 147.704 16.7835 147.821 16.1595H150.203C150.06 16.9135 149.76 17.583 149.305 18.168C148.849 18.753 148.257 19.2145 147.528 19.5525C146.799 19.8775 145.986 20.04 145.088 20.04C144.046 20.04 143.122 19.819 142.315 19.377C141.521 18.935 140.896 18.298 140.441 17.466C139.985 16.634 139.757 15.6525 139.757 14.5215C139.757 13.4035 139.985 12.4285 140.441 11.5965C140.896 10.7645 141.521 10.1275 142.315 9.6855C143.122 9.2435 144.046 9.0225 145.088 9.0225C146.142 9.0225 147.059 9.2435 147.84 9.6855C148.634 10.1145 149.24 10.7125 149.656 11.4795C150.086 12.2335 150.3 13.0785 150.3 14.0145ZM148.055 13.956C148.081 13.254 147.958 12.669 147.684 12.201C147.424 11.72 147.059 11.369 146.591 11.148C146.135 10.914 145.634 10.797 145.088 10.797C144.215 10.797 143.487 11.0635 142.901 11.5965C142.315 12.1295 141.996 12.916 141.944 13.956H148.055Z" fill="#0C0C0C"/>
<path d="M160.532 12.8055C161.366 13.0005 162.023 13.4035 162.504 14.0145C162.999 14.6255 163.246 15.334 163.246 16.14C163.246 17.323 162.849 18.246 162.055 18.909C161.274 19.572 160.149 19.9035 158.678 19.9035H152.254V6.117H158.522C159.927 6.117 161.014 6.4225 161.782 7.0335C162.55 7.6445 162.934 8.5155 162.934 9.6465C162.934 10.4785 162.713 11.174 162.27 11.733C161.828 12.279 161.248 12.6365 160.532 12.8055ZM155.593 11.7525H157.78C158.938 11.7525 159.517 11.2585 159.517 10.2705C159.517 9.2825 158.925 8.7885 157.741 8.7885H155.593V11.7525ZM157.975 17.193C159.211 17.193 159.83 16.686 159.83 15.672C159.83 15.178 159.667 14.7945 159.342 14.5215C159.016 14.2355 158.554 14.0925 157.955 14.0925H155.593V17.193H157.975Z" fill="#0C0C0C"/>
<path d="M170.106 8.886C171.186 8.886 172.149 9.1135 172.995 9.5685C173.854 10.0105 174.525 10.654 175.006 11.499C175.501 12.344 175.748 13.332 175.748 14.463C175.748 15.594 175.501 16.582 175.006 17.427C174.525 18.272 173.854 18.922 172.995 19.377C172.149 19.819 171.186 20.04 170.106 20.04C169.025 20.04 168.056 19.819 167.196 19.377C166.337 18.922 165.661 18.272 165.166 17.427C164.684 16.582 164.444 15.594 164.444 14.463C164.444 13.332 164.684 12.344 165.166 11.499C165.661 10.654 166.337 10.0105 167.196 9.5685C168.056 9.1135 169.025 8.886 170.106 8.886ZM170.106 11.772C169.468 11.772 168.928 12.006 168.485 12.474C168.056 12.929 167.841 13.592 167.841 14.463C167.841 15.334 168.056 15.997 168.485 16.452C168.928 16.907 169.468 17.1345 170.106 17.1345C170.743 17.1345 171.277 16.907 171.707 16.452C172.136 15.997 172.351 15.334 172.351 14.463C172.351 13.592 172.136 12.929 171.707 12.474C171.277 12.006 170.743 11.772 170.106 11.772Z" fill="#0C0C0C"/>
<path d="M182.575 8.886C183.655 8.886 184.619 9.1135 185.465 9.5685C186.324 10.0105 186.994 10.654 187.476 11.499C187.97 12.344 188.218 13.332 188.218 14.463C188.218 15.594 187.97 16.582 187.476 17.427C186.994 18.272 186.324 18.922 185.465 19.377C184.619 19.819 183.655 20.04 182.575 20.04C181.495 20.04 180.525 19.819 179.666 19.377C178.807 18.922 178.13 18.272 177.635 17.427C177.154 16.582 176.913 15.594 176.913 14.463C176.913 13.332 177.154 12.344 177.635 11.499C178.13 10.654 178.807 10.0105 179.666 9.5685C180.525 9.1135 181.495 8.886 182.575 8.886ZM182.575 11.772C181.937 11.772 181.397 12.006 180.955 12.474C180.525 12.929 180.31 13.592 180.31 14.463C180.31 15.334 180.525 15.997 180.955 16.452C181.397 16.907 181.937 17.1345 182.575 17.1345C183.213 17.1345 183.747 16.907 184.176 16.452C184.606 15.997 184.82 15.334 184.82 14.463C184.82 13.592 184.606 12.929 184.176 12.474C183.747 12.006 183.213 11.772 182.575 11.772Z" fill="#0C0C0C"/>
<path d="M193.912 8.886C195.292 8.886 196.392 9.2305 197.212 9.9195C198.045 10.6085 198.565 11.5185 198.774 12.6495H195.65C195.559 12.2075 195.35 11.863 195.025 11.616C194.713 11.356 194.316 11.226 193.834 11.226C193.457 11.226 193.17 11.3105 192.975 11.4795C192.78 11.6355 192.682 11.863 192.682 12.162C192.682 12.5 192.858 12.7535 193.209 12.9225C193.574 13.0915 194.14 13.2605 194.908 13.4295C195.741 13.6245 196.424 13.826 196.958 14.034C197.492 14.229 197.954 14.554 198.344 15.009C198.735 15.464 198.93 16.075 198.93 16.842C198.93 17.466 198.761 18.0185 198.422 18.4995C198.084 18.9805 197.596 19.3575 196.958 19.6305C196.32 19.9035 195.565 20.04 194.693 20.04C193.222 20.04 192.044 19.715 191.159 19.065C190.274 18.415 189.734 17.4855 189.539 16.2765H192.76C192.812 16.7445 193.008 17.102 193.346 17.349C193.697 17.596 194.146 17.7195 194.693 17.7195C195.071 17.7195 195.357 17.635 195.552 17.466C195.747 17.284 195.845 17.05 195.845 16.764C195.845 16.387 195.663 16.1205 195.298 15.9645C194.947 15.7955 194.368 15.62 193.561 15.438C192.754 15.269 192.09 15.087 191.569 14.892C191.049 14.697 190.6 14.385 190.222 13.956C189.845 13.514 189.656 12.916 189.656 12.162C189.656 11.187 190.027 10.4005 190.769 9.8025C191.511 9.1915 192.558 8.886 193.912 8.886Z" fill="#0C0C0C"/>
<path d="M206.948 17.037V19.9035H205.445C204.169 19.9035 203.174 19.5915 202.458 18.9675C201.755 18.3305 201.403 17.284 201.403 15.828V11.8305H199.939V9.0225H201.403V6.351H204.742V9.0225H206.929V11.8305H204.742V15.8865C204.742 16.3155 204.827 16.6145 204.996 16.7835C205.178 16.9525 205.477 17.037 205.894 17.037H206.948Z" fill="#0C0C0C"/>
<path d="M219.172 14.1705C219.172 14.4435 219.14 14.7425 219.075 15.0675H211.519C211.558 15.8865 211.766 16.478 212.144 16.842C212.521 17.193 213.003 17.3685 213.589 17.3685C214.083 17.3685 214.493 17.245 214.819 16.998C215.144 16.751 215.359 16.4325 215.463 16.0425H218.997C218.854 16.8095 218.541 17.4985 218.06 18.1095C217.578 18.7075 216.966 19.182 216.224 19.533C215.482 19.871 214.656 20.04 213.745 20.04C212.677 20.04 211.727 19.819 210.894 19.377C210.074 18.922 209.43 18.272 208.961 17.427C208.493 16.582 208.258 15.594 208.258 14.463C208.258 13.319 208.486 12.331 208.942 11.499C209.41 10.654 210.061 10.0105 210.894 9.5685C211.727 9.1135 212.677 8.886 213.745 8.886C214.825 8.886 215.775 9.107 216.595 9.549C217.415 9.991 218.047 10.615 218.489 11.421C218.945 12.214 219.172 13.1305 219.172 14.1705ZM215.795 13.6635C215.808 12.9485 215.613 12.4155 215.209 12.0645C214.819 11.7005 214.33 11.5185 213.745 11.5185C213.133 11.5185 212.625 11.7005 212.222 12.0645C211.818 12.4285 211.591 12.9615 211.538 13.6635H215.795Z" fill="#0C0C0C"/>
<path d="M224.251 11.07C224.668 10.407 225.202 9.8805 225.852 9.4905C226.516 9.1005 227.232 8.9055 228 8.9055V12.474H227.043C226.158 12.474 225.468 12.6625 224.974 13.0395C224.492 13.4165 224.251 14.0535 224.251 14.9505V19.9035H220.913V9.0225H224.251V11.07Z" fill="#0C0C0C"/>
<path d="M-1.52588e-05 17.5L16.0162 8.57196L16.0198 3.8147e-06L-1.46244e-05 8.9237L-1.52588e-05 17.5Z" fill="#B5CBEF"/>
<path d="M34.042 13.5L17.5216 23.0263L17.5216 3.97372L34.042 13.5Z" fill="#1071FF"/>
<path d="M7.50926 23.3902L16.0198 28L16.0198 19.4972L7.50926 15L7.50926 23.3902Z" fill="#B5CBEF"/>
</svg>
