<svg width="15" height="14" viewBox="0 0 15 14" fill="none" xmlns="http://www.w3.org/2000/svg">
<path d="M10.3675 7.66732C10.8675 7.66732 11.3075 7.39398 11.5341 6.98065L13.9208 2.65398C14.1675 2.21398 13.8475 1.66732 13.3408 1.66732H3.47415L2.84748 0.333984H0.66748V1.66732H2.00081L4.40081 6.72732L3.50081 8.35398C3.01415 9.24732 3.65415 10.334 4.66748 10.334H12.6675V9.00065H4.66748L5.40081 7.66732H10.3675ZM4.10748 3.00065H12.2075L10.3675 6.33398H5.68748L4.10748 3.00065ZM4.66748 11.0007C3.93415 11.0007 3.34081 11.6007 3.34081 12.334C3.34081 13.0673 3.93415 13.6673 4.66748 13.6673C5.40081 13.6673 6.00081 13.0673 6.00081 12.334C6.00081 11.6007 5.40081 11.0007 4.66748 11.0007ZM11.3341 11.0007C10.6008 11.0007 10.0075 11.6007 10.0075 12.334C10.0075 13.0673 10.6008 13.6673 11.3341 13.6673C12.0675 13.6673 12.6675 13.0673 12.6675 12.334C12.6675 11.6007 12.0675 11.0007 11.3341 11.0007Z" fill="#1071FF"/>
</svg>
