<svg width="14" height="14" viewBox="0 0 14 14" fill="none" xmlns="http://www.w3.org/2000/svg">
<path d="M6.99992 0.333374C3.31992 0.333374 0.333252 3.32004 0.333252 7.00004C0.333252 10.68 3.31992 13.6667 6.99992 13.6667C10.6799 13.6667 13.6666 10.68 13.6666 7.00004C13.6666 3.32004 10.6799 0.333374 6.99992 0.333374ZM6.99992 12.3334C4.05992 12.3334 1.66659 9.94004 1.66659 7.00004C1.66659 4.06004 4.05992 1.66671 6.99992 1.66671C9.93992 1.66671 12.3333 4.06004 12.3333 7.00004C12.3333 9.94004 9.93992 12.3334 6.99992 12.3334ZM10.0599 4.05337L5.66659 8.44671L3.93992 6.72671L2.99992 7.66671L5.66659 10.3334L10.9999 5.00004L10.0599 4.05337Z" fill="#00893A"/>
</svg>
