<svg width="14" height="14" viewBox="0 0 14 14" fill="none" xmlns="http://www.w3.org/2000/svg">
<path d="M7.00004 0.333374C3.32004 0.333374 0.333374 3.32004 0.333374 7.00004C0.333374 10.68 3.32004 13.6667 7.00004 13.6667C10.68 13.6667 13.6667 10.68 13.6667 7.00004C13.6667 3.32004 10.68 0.333374 7.00004 0.333374ZM7.00004 12.3334C4.06004 12.3334 1.66671 9.94004 1.66671 7.00004C1.66671 4.06004 4.06004 1.66671 7.00004 1.66671C9.94004 1.66671 12.3334 4.06004 12.3334 7.00004C12.3334 9.94004 9.94004 12.3334 7.00004 12.3334ZM10.06 4.05337L5.66671 8.44671L3.94004 6.72671L3.00004 7.66671L5.66671 10.3334L11 5.00004L10.06 4.05337Z" fill="#1071FF"/>
</svg>
